<svg width="24" height="24" viewBox="0 0 24 24" fill="none" xmlns="http://www.w3.org/2000/svg">
<path d="M21 10H3V12H4V20H20V12H21V10Z" stroke="#1E5DBC" stroke-width="2" stroke-linecap="round" stroke-linejoin="round"/>
<path d="M7 10V6C7 5.46957 7.21071 4.96086 7.58579 4.58579C7.96086 4.21071 8.46957 4 9 4H15C15.5304 4 16.0391 4.21071 16.4142 4.58579C16.7893 4.96086 17 5.46957 17 6V10" stroke="#1E5DBC" stroke-width="2" stroke-linecap="round" stroke-linejoin="round"/>
<path d="M12 16C13.1046 16 14 15.1046 14 14C14 12.8954 13.1046 12 12 12C10.8954 12 10 12.8954 10 14C10 15.1046 10.8954 16 12 16Z" stroke="#1E5DBC" stroke-width="2" stroke-linecap="round" stroke-linejoin="round"/>
</svg> 