<svg width="24" height="24" viewBox="0 0 24 24" fill="none" xmlns="http://www.w3.org/2000/svg">
<path d="M3 21V8C3 7.46957 3.21071 6.96086 3.58579 6.58579C3.96086 6.21071 4.46957 6 5 6H19C19.5304 6 20.0391 6.21071 20.4142 6.58579C20.7893 6.96086 21 7.46957 21 8V21" stroke="#142a3d" stroke-width="2" stroke-linecap="round" stroke-linejoin="round"/>
<path d="M3 16H21" stroke="#142a3d" stroke-width="2" stroke-linecap="round" stroke-linejoin="round"/>
<path d="M8 16V13C8 12.4696 8.21071 11.9609 8.58579 11.5858C8.96086 11.2107 9.46957 11 10 11H14C14.5304 11 15.0391 11.2107 15.4142 11.5858C15.7893 11.9609 16 12.4696 16 13V16" stroke="#142a3d" stroke-width="2" stroke-linecap="round" stroke-linejoin="round"/>
</svg> 