<svg width="24" height="24" viewBox="0 0 24 24" fill="none" xmlns="http://www.w3.org/2000/svg">
<path d="M3 9L12 2L21 9V20C21 20.5304 20.7893 21.0391 20.4142 21.4142C20.0391 21.7893 19.5304 22 19 22H5C4.46957 22 3.96086 21.7893 3.58579 21.4142C3.21071 21.0391 3 20.5304 3 20V9Z" stroke="#142a3d" stroke-width="2" stroke-linecap="round" stroke-linejoin="round"/>
<path d="M9 22V16C9 15.4696 9.21071 14.9609 9.58579 14.5858C9.96086 14.2107 10.4696 14 11 14H13C13.5304 14 14.0391 14.2107 14.4142 14.5858C14.7893 14.9609 15 15.4696 15 16V22" stroke="#142a3d" stroke-width="2" stroke-linecap="round" stroke-linejoin="round"/>
<path d="M4 10H20" stroke="#142a3d" stroke-width="2" stroke-linecap="round" stroke-linejoin="round"/>
</svg> 