<svg width="24" height="24" viewBox="0 0 24 24" fill="none" xmlns="http://www.w3.org/2000/svg">
<path d="M3 22V8C3 7.46957 3.21071 6.96086 3.58579 6.58579C3.96086 6.21071 4.46957 6 5 6H19C19.5304 6 20.0391 6.21071 20.4142 6.58579C20.7893 6.96086 21 7.46957 21 8V22" stroke="#1E5DBC" stroke-width="2" stroke-linecap="round" stroke-linejoin="round"/>
<path d="M3 17H21" stroke="#1E5DBC" stroke-width="2" stroke-linecap="round" stroke-linejoin="round"/>
<path d="M8 17V14C8 13.4696 8.21071 12.9609 8.58579 12.5858C8.96086 12.2107 9.46957 12 10 12H14C14.5304 12 15.0391 12.2107 15.4142 12.5858C15.7893 12.9609 16 13.4696 16 14V17" stroke="#1E5DBC" stroke-width="2" stroke-linecap="round" stroke-linejoin="round"/>
<path d="M12 9C12.8284 9 13.5 8.32843 13.5 7.5C13.5 6.67157 12.8284 6 12 6C11.1716 6 10.5 6.67157 10.5 7.5C10.5 8.32843 11.1716 9 12 9Z" stroke="#1E5DBC" stroke-width="2" stroke-linecap="round" stroke-linejoin="round"/>
</svg> 